<svg width="1394" height="82" viewBox="0 0 1394 82" fill="none" xmlns="http://www.w3.org/2000/svg">
<rect x="2.5" y="0.5" width="317" height="81" stroke="black"/>
<path d="M86.6666 35.24C89.2666 35.24 91.6066 36.4 92.1666 39.2H90.1866C89.6866 37.52 88.0466 36.96 86.5866 36.96C85.4666 36.96 83.5066 37.46 83.5066 39.08C83.5066 40.36 84.5266 41 85.8666 41.3L87.5466 41.68C89.7666 42.16 92.4266 43 92.4266 45.92C92.4266 48.76 89.7866 50.26 86.9066 50.26C83.4866 50.26 81.3266 48.4 80.9466 45.5H82.9466C83.3266 47.5 84.7266 48.54 86.9466 48.54C89.0866 48.54 90.3266 47.52 90.3266 46.1C90.3266 44.58 89.0266 43.94 87.2066 43.54L85.4066 43.16C83.4266 42.72 81.4266 41.62 81.4266 39.2C81.4266 36.44 84.3266 35.24 86.6666 35.24ZM96.0721 45.22C96.1521 47.54 97.7921 48.66 99.3921 48.66C100.992 48.66 101.872 47.94 102.332 46.88H104.212C103.712 48.74 102.012 50.26 99.3921 50.26C95.9921 50.26 94.1121 47.82 94.1121 44.64C94.1121 41.24 96.3921 39.06 99.3321 39.06C102.612 39.06 104.592 41.82 104.352 45.22H96.0721ZM96.0921 43.66H102.432C102.392 42.14 101.252 40.62 99.3321 40.62C97.7121 40.62 96.2521 41.5 96.0921 43.66ZM108.293 50H106.473V39.24H108.293V40.86C108.913 39.84 109.913 39.06 111.533 39.06C113.173 39.06 114.153 39.78 114.633 40.96C115.493 39.64 116.753 39.06 118.253 39.06C120.753 39.06 121.733 40.74 121.733 43.2V50H119.913V43.74C119.913 42.08 119.593 40.64 117.613 40.64C116.053 40.64 115.013 41.86 115.013 44.16V50H113.193V43.74C113.193 42.08 112.873 40.64 110.893 40.64C109.333 40.64 108.293 41.86 108.293 44.16V50ZM125.681 45.22C125.761 47.54 127.401 48.66 129.001 48.66C130.601 48.66 131.481 47.94 131.941 46.88H133.821C133.321 48.74 131.621 50.26 129.001 50.26C125.601 50.26 123.721 47.82 123.721 44.64C123.721 41.24 126.001 39.06 128.941 39.06C132.221 39.06 134.201 41.82 133.961 45.22H125.681ZM125.701 43.66H132.041C132.001 42.14 130.861 40.62 128.941 40.62C127.321 40.62 125.861 41.5 125.701 43.66ZM148.209 35.5H150.029V50H148.209V48.38C147.549 49.52 146.409 50.26 144.689 50.26C142.229 50.26 140.089 48.22 140.089 44.66C140.089 41.12 142.229 39.06 144.689 39.06C146.409 39.06 147.549 39.8 148.209 40.94V35.5ZM145.149 40.62C143.289 40.62 142.069 42.1 142.069 44.66C142.069 47.22 143.289 48.7 145.149 48.7C146.769 48.7 148.289 47.5 148.289 44.66C148.289 41.82 146.769 40.62 145.149 40.62ZM154.719 35.5V37.7H152.899V35.5H154.719ZM154.719 39.24V50H152.899V39.24H154.719ZM164.172 39.24V40.94C164.832 39.8 165.972 39.06 167.692 39.06C170.152 39.06 172.292 41.12 172.292 44.66C172.292 48.22 170.152 50.26 167.692 50.26C165.972 50.26 164.832 49.52 164.172 48.38V53.5H162.352V39.24H164.172ZM167.232 48.7C169.092 48.7 170.312 47.22 170.312 44.66C170.312 42.1 169.092 40.62 167.232 40.62C165.612 40.62 164.092 41.82 164.092 44.66C164.092 47.5 165.612 48.7 167.232 48.7ZM173.782 47.16C173.782 44.62 176.642 43.88 181.062 43.38V43.12C181.062 41.16 179.962 40.5 178.622 40.5C177.122 40.5 176.242 41.32 176.162 42.64H174.282C174.462 40.32 176.502 39.02 178.602 39.02C181.562 39.02 182.902 40.44 182.882 43.46L182.862 45.94C182.842 47.74 182.942 48.98 183.142 50H181.302C181.242 49.6 181.182 49.16 181.162 48.52C180.502 49.62 179.382 50.26 177.482 50.26C175.462 50.26 173.782 49.14 173.782 47.16ZM181.202 44.82C177.902 45.16 175.802 45.64 175.802 47.12C175.802 48.14 176.582 48.82 177.882 48.82C179.582 48.82 181.202 48.04 181.202 45.5V44.82ZM190.954 41.14C190.574 41.1 190.234 41.06 189.934 41.06C188.254 41.06 187.414 42 187.414 44.36V50H185.594V39.24H187.374V41.12C187.914 39.9 189.014 39.22 190.414 39.18C190.594 39.18 190.754 39.18 190.954 39.2V41.14ZM193.224 36.54H195.044V39.24H197.084V40.7H195.044V47.08C195.044 48.2 195.124 48.48 196.164 48.48H197.084V50H195.764C193.704 50 193.224 49.54 193.224 47.3V40.7H191.524V39.24H193.224V36.54ZM200.33 45.22C200.41 47.54 202.05 48.66 203.65 48.66C205.25 48.66 206.13 47.94 206.59 46.88H208.47C207.97 48.74 206.27 50.26 203.65 50.26C200.25 50.26 198.37 47.82 198.37 44.64C198.37 41.24 200.65 39.06 203.59 39.06C206.87 39.06 208.85 41.82 208.61 45.22H200.33ZM200.35 43.66H206.69C206.65 42.14 205.51 40.62 203.59 40.62C201.97 40.62 200.51 41.5 200.35 43.66ZM212.551 40.86C213.171 39.84 214.211 39.06 216.031 39.06C218.631 39.06 219.571 40.74 219.571 43.2V50H217.751V43.74C217.751 42.08 217.471 40.64 215.391 40.64C213.631 40.64 212.551 41.86 212.551 44.16V50H210.731V39.24H212.551V40.86ZM221.514 48.42L227.734 40.82H221.914V39.24H229.854V40.82L223.654 48.42H229.974V50H221.514V48.42ZM231.321 47.16C231.321 44.62 234.181 43.88 238.601 43.38V43.12C238.601 41.16 237.501 40.5 236.161 40.5C234.661 40.5 233.781 41.32 233.701 42.64H231.821C232.001 40.32 234.041 39.02 236.141 39.02C239.101 39.02 240.441 40.44 240.421 43.46L240.401 45.94C240.381 47.74 240.481 48.98 240.681 50H238.841C238.781 49.6 238.721 49.16 238.701 48.52C238.041 49.62 236.921 50.26 235.021 50.26C233.001 50.26 231.321 49.14 231.321 47.16ZM238.741 44.82C235.441 45.16 233.341 45.64 233.341 47.12C233.341 48.14 234.121 48.82 235.421 48.82C237.121 48.82 238.741 48.04 238.741 45.5V44.82Z" fill="black"/>
<rect x="541.5" y="0.5" width="314" height="81" stroke="black"/>
<path d="M589.767 33.5H592.127L597.587 48H595.387L594.247 44.86H587.587L586.467 48H584.387L589.767 33.5ZM588.207 43.12H593.607L590.887 35.56L588.207 43.12ZM600.85 48H599.03V33.5H600.85V48ZM610.977 37.24H612.797V46.56C612.797 48.76 612.397 49.66 611.777 50.34C610.997 51.24 609.657 51.76 608.057 51.76C605.617 51.76 603.977 50.64 603.637 48.46H605.577C605.817 49.42 606.397 50.16 608.077 50.16C609.057 50.16 609.797 49.88 610.277 49.36C610.677 48.94 610.977 48.44 610.977 46.98V45.96C610.317 47.1 609.277 47.82 607.557 47.82C605.177 47.82 602.997 45.9 602.997 42.44C602.997 39 605.177 37.06 607.557 37.06C609.277 37.06 610.317 37.8 610.977 38.94V37.24ZM608.017 38.62C606.237 38.62 604.977 40 604.977 42.44C604.977 44.9 606.237 46.28 608.017 46.28C609.637 46.28 611.057 45.18 611.057 42.44C611.057 39.72 609.637 38.62 608.017 38.62ZM625.29 42.66C625.29 46.56 622.63 48.26 620.13 48.26C617.63 48.26 614.97 46.56 614.97 42.66C614.97 38.76 617.63 37.06 620.13 37.06C622.63 37.06 625.29 38.76 625.29 42.66ZM620.13 46.66C621.77 46.66 623.35 45.42 623.35 42.66C623.35 39.8 621.77 38.66 620.13 38.66C618.49 38.66 616.91 39.72 616.91 42.66C616.91 45.52 618.49 46.66 620.13 46.66ZM632.827 39.14C632.447 39.1 632.107 39.06 631.807 39.06C630.127 39.06 629.287 40 629.287 42.36V48H627.467V37.24H629.247V39.12C629.787 37.9 630.887 37.22 632.287 37.18C632.467 37.18 632.627 37.18 632.827 37.2V39.14ZM636.397 33.5V35.7H634.577V33.5H636.397ZM636.397 37.24V48H634.577V37.24H636.397ZM639.804 34.54H641.624V37.24H643.664V38.7H641.624V45.08C641.624 46.2 641.704 46.48 642.744 46.48H643.664V48H642.344C640.284 48 639.804 47.54 639.804 45.3V38.7H638.104V37.24H639.804V34.54ZM647.608 48H645.788V37.24H647.608V38.86C648.228 37.84 649.228 37.06 650.848 37.06C652.488 37.06 653.468 37.78 653.948 38.96C654.808 37.64 656.068 37.06 657.568 37.06C660.068 37.06 661.048 38.74 661.048 41.2V48H659.228V41.74C659.228 40.08 658.908 38.64 656.928 38.64C655.368 38.64 654.328 39.86 654.328 42.16V48H652.508V41.74C652.508 40.08 652.188 38.64 650.208 38.64C648.648 38.64 647.608 39.86 647.608 42.16V48ZM673.396 42.66C673.396 46.56 670.736 48.26 668.236 48.26C665.736 48.26 663.076 46.56 663.076 42.66C663.076 38.76 665.736 37.06 668.236 37.06C670.736 37.06 673.396 38.76 673.396 42.66ZM668.236 46.66C669.876 46.66 671.456 45.42 671.456 42.66C671.456 39.8 669.876 38.66 668.236 38.66C666.596 38.66 665.016 39.72 665.016 42.66C665.016 45.52 666.596 46.66 668.236 46.66ZM687.699 33.5H689.519V48H687.699V46.38C687.039 47.52 685.899 48.26 684.179 48.26C681.719 48.26 679.579 46.22 679.579 42.66C679.579 39.12 681.719 37.06 684.179 37.06C685.899 37.06 687.039 37.8 687.699 38.94V33.5ZM684.639 38.62C682.779 38.62 681.559 40.1 681.559 42.66C681.559 45.22 682.779 46.7 684.639 46.7C686.259 46.7 687.779 45.5 687.779 42.66C687.779 39.82 686.259 38.62 684.639 38.62ZM693.609 43.22C693.689 45.54 695.329 46.66 696.929 46.66C698.529 46.66 699.409 45.94 699.869 44.88H701.749C701.249 46.74 699.549 48.26 696.929 48.26C693.529 48.26 691.649 45.82 691.649 42.64C691.649 39.24 693.929 37.06 696.869 37.06C700.149 37.06 702.129 39.82 701.889 43.22H693.609ZM693.629 41.66H699.969C699.929 40.14 698.789 38.62 696.869 38.62C695.249 38.62 693.789 39.5 693.629 41.66ZM704.53 34.54H706.35V37.24H708.39V38.7H706.35V45.08C706.35 46.2 706.43 46.48 707.47 46.48H708.39V48H707.07C705.01 48 704.53 47.54 704.53 45.3V38.7H702.83V37.24H704.53V34.54ZM711.637 43.22C711.717 45.54 713.357 46.66 714.957 46.66C716.557 46.66 717.437 45.94 717.897 44.88H719.777C719.277 46.74 717.577 48.26 714.957 48.26C711.557 48.26 709.677 45.82 709.677 42.64C709.677 39.24 711.957 37.06 714.897 37.06C718.177 37.06 720.157 39.82 719.917 43.22H711.637ZM711.657 41.66H717.997C717.957 40.14 716.817 38.62 714.897 38.62C713.277 38.62 711.817 39.5 711.657 41.66ZM727.398 39.14C727.018 39.1 726.678 39.06 726.378 39.06C724.698 39.06 723.858 40 723.858 42.36V48H722.038V37.24H723.818V39.12C724.358 37.9 725.458 37.22 726.858 37.18C727.038 37.18 727.198 37.18 727.398 37.2V39.14ZM730.967 48H729.147V37.24H730.967V38.86C731.587 37.84 732.587 37.06 734.207 37.06C735.847 37.06 736.827 37.78 737.307 38.96C738.167 37.64 739.427 37.06 740.927 37.06C743.427 37.06 744.407 38.74 744.407 41.2V48H742.587V41.74C742.587 40.08 742.267 38.64 740.287 38.64C738.727 38.64 737.687 39.86 737.687 42.16V48H735.867V41.74C735.867 40.08 735.547 38.64 733.567 38.64C732.007 38.64 730.967 39.86 730.967 42.16V48ZM748.955 33.5V35.7H747.135V33.5H748.955ZM748.955 37.24V48H747.135V37.24H748.955ZM753.662 38.86C754.282 37.84 755.322 37.06 757.142 37.06C759.742 37.06 760.682 38.74 760.682 41.2V48H758.862V41.74C758.862 40.08 758.582 38.64 756.502 38.64C754.742 38.64 753.662 39.86 753.662 42.16V48H751.842V37.24H753.662V38.86ZM765.225 33.5V35.7H763.405V33.5H765.225ZM765.225 37.24V48H763.405V37.24H765.225ZM774.272 40.38C773.992 39.1 772.992 38.6 771.732 38.6C770.672 38.6 769.472 38.98 769.472 39.96C769.472 40.82 770.072 41.22 771.112 41.42L772.632 41.72C774.592 42.1 776.312 42.84 776.312 44.92C776.312 47.04 774.392 48.26 771.932 48.26C769.112 48.26 767.512 46.4 767.312 44.52H769.232C769.512 45.9 770.372 46.72 771.972 46.72C773.352 46.72 774.472 46.12 774.472 45.12C774.472 44.04 773.452 43.58 772.292 43.34L770.692 43.02C769.232 42.72 767.632 42.04 767.632 40.04C767.632 38.14 769.552 37.04 771.932 37.04C774.252 37.04 775.832 38.34 776.172 40.38H774.272ZM779.14 34.54H780.96V37.24H783V38.7H780.96V45.08C780.96 46.2 781.04 46.48 782.08 46.48H783V48H781.68C779.62 48 779.14 47.54 779.14 45.3V38.7H777.44V37.24H779.14V34.54ZM787.139 33.5V35.7H785.319V33.5H787.139ZM787.139 37.24V48H785.319V37.24H787.139ZM798.986 40.84H797.146C796.886 39.56 795.766 38.66 794.366 38.66C792.746 38.66 791.266 39.92 791.266 42.62C791.266 45.36 792.766 46.66 794.366 46.66C795.886 46.66 796.966 45.64 797.226 44.5H799.106C798.746 46.52 796.806 48.26 794.306 48.26C791.226 48.26 789.286 45.92 789.286 42.64C789.286 39.44 791.306 37.06 794.486 37.06C797.086 37.06 798.746 39.02 798.986 40.84ZM810.876 42.66C810.876 46.56 808.216 48.26 805.716 48.26C803.216 48.26 800.556 46.56 800.556 42.66C800.556 38.76 803.216 37.06 805.716 37.06C808.216 37.06 810.876 38.76 810.876 42.66ZM805.716 46.66C807.356 46.66 808.936 45.42 808.936 42.66C808.936 39.8 807.356 38.66 805.716 38.66C804.076 38.66 802.496 39.72 802.496 42.66C802.496 45.52 804.076 46.66 805.716 46.66Z" fill="black"/>
<rect x="1080.5" y="0.5" width="313" height="81" stroke="black"/>
<path d="M1101.69 33.24C1104.29 33.24 1106.63 34.4 1107.19 37.2H1105.21C1104.71 35.52 1103.07 34.96 1101.61 34.96C1100.49 34.96 1098.53 35.46 1098.53 37.08C1098.53 38.36 1099.55 39 1100.89 39.3L1102.57 39.68C1104.79 40.16 1107.45 41 1107.45 43.92C1107.45 46.76 1104.81 48.26 1101.93 48.26C1098.51 48.26 1096.35 46.4 1095.97 43.5H1097.97C1098.35 45.5 1099.75 46.54 1101.97 46.54C1104.11 46.54 1105.35 45.52 1105.35 44.1C1105.35 42.58 1104.05 41.94 1102.23 41.54L1100.43 41.16C1098.45 40.72 1096.45 39.62 1096.45 37.2C1096.45 34.44 1099.35 33.24 1101.69 33.24ZM1110.29 34.54H1112.11V37.24H1114.15V38.7H1112.11V45.08C1112.11 46.2 1112.19 46.48 1113.23 46.48H1114.15V48H1112.83C1110.77 48 1110.29 47.54 1110.29 45.3V38.7H1108.59V37.24H1110.29V34.54ZM1121.64 39.14C1121.26 39.1 1120.92 39.06 1120.62 39.06C1118.94 39.06 1118.1 40 1118.1 42.36V48H1116.28V37.24H1118.06V39.12C1118.6 37.9 1119.7 37.22 1121.1 37.18C1121.28 37.18 1121.44 37.18 1121.64 37.2V39.14ZM1125.21 33.5V35.7H1123.39V33.5H1125.21ZM1125.21 37.24V48H1123.39V37.24H1125.21ZM1129.91 38.86C1130.53 37.84 1131.57 37.06 1133.39 37.06C1135.99 37.06 1136.93 38.74 1136.93 41.2V48H1135.11V41.74C1135.11 40.08 1134.83 38.64 1132.75 38.64C1130.99 38.64 1129.91 39.86 1129.91 42.16V48H1128.09V37.24H1129.91V38.86ZM1146.9 37.24H1148.72V46.56C1148.72 48.76 1148.32 49.66 1147.7 50.34C1146.92 51.24 1145.58 51.76 1143.98 51.76C1141.54 51.76 1139.9 50.64 1139.56 48.46H1141.5C1141.74 49.42 1142.32 50.16 1144 50.16C1144.98 50.16 1145.72 49.88 1146.2 49.36C1146.6 48.94 1146.9 48.44 1146.9 46.98V45.96C1146.24 47.1 1145.2 47.82 1143.48 47.82C1141.1 47.82 1138.92 45.9 1138.92 42.44C1138.92 39 1141.1 37.06 1143.48 37.06C1145.2 37.06 1146.24 37.8 1146.9 38.94V37.24ZM1143.94 38.62C1142.16 38.62 1140.9 40 1140.9 42.44C1140.9 44.9 1142.16 46.28 1143.94 46.28C1145.56 46.28 1146.98 45.18 1146.98 42.44C1146.98 39.72 1145.56 38.62 1143.94 38.62ZM1150.95 45.16C1150.95 42.62 1153.81 41.88 1158.23 41.38V41.12C1158.23 39.16 1157.13 38.5 1155.79 38.5C1154.29 38.5 1153.41 39.32 1153.33 40.64H1151.45C1151.63 38.32 1153.67 37.02 1155.77 37.02C1158.73 37.02 1160.07 38.44 1160.05 41.46L1160.03 43.94C1160.01 45.74 1160.11 46.98 1160.31 48H1158.47C1158.41 47.6 1158.35 47.16 1158.33 46.52C1157.67 47.62 1156.55 48.26 1154.65 48.26C1152.63 48.26 1150.95 47.14 1150.95 45.16ZM1158.37 42.82C1155.07 43.16 1152.97 43.64 1152.97 45.12C1152.97 46.14 1153.75 46.82 1155.05 46.82C1156.75 46.82 1158.37 46.04 1158.37 43.5V42.82ZM1174.89 33.5H1176.71V48H1174.89V46.38C1174.23 47.52 1173.09 48.26 1171.37 48.26C1168.91 48.26 1166.77 46.22 1166.77 42.66C1166.77 39.12 1168.91 37.06 1171.37 37.06C1173.09 37.06 1174.23 37.8 1174.89 38.94V33.5ZM1171.83 38.62C1169.97 38.62 1168.75 40.1 1168.75 42.66C1168.75 45.22 1169.97 46.7 1171.83 46.7C1173.45 46.7 1174.97 45.5 1174.97 42.66C1174.97 39.82 1173.45 38.62 1171.83 38.62ZM1181.4 33.5V35.7H1179.58V33.5H1181.4ZM1181.4 37.24V48H1179.58V37.24H1181.4ZM1192.53 45.48L1195.45 37.24H1197.33L1193.27 48H1191.65L1187.59 37.24H1189.61L1192.53 45.48ZM1197.75 45.16C1197.75 42.62 1200.61 41.88 1205.03 41.38V41.12C1205.03 39.16 1203.93 38.5 1202.59 38.5C1201.09 38.5 1200.21 39.32 1200.13 40.64H1198.25C1198.43 38.32 1200.47 37.02 1202.57 37.02C1205.53 37.02 1206.87 38.44 1206.85 41.46L1206.83 43.94C1206.81 45.74 1206.91 46.98 1207.11 48H1205.27C1205.21 47.6 1205.15 47.16 1205.13 46.52C1204.47 47.62 1203.35 48.26 1201.45 48.26C1199.43 48.26 1197.75 47.14 1197.75 45.16ZM1205.17 42.82C1201.87 43.16 1199.77 43.64 1199.77 45.12C1199.77 46.14 1200.55 46.82 1201.85 46.82C1203.55 46.82 1205.17 46.04 1205.17 43.5V42.82ZM1211.38 48H1209.56V33.5H1211.38V48ZM1223.89 42.66C1223.89 46.56 1221.23 48.26 1218.73 48.26C1216.23 48.26 1213.57 46.56 1213.57 42.66C1213.57 38.76 1216.23 37.06 1218.73 37.06C1221.23 37.06 1223.89 38.76 1223.89 42.66ZM1218.73 46.66C1220.37 46.66 1221.95 45.42 1221.95 42.66C1221.95 39.8 1220.37 38.66 1218.73 38.66C1217.09 38.66 1215.51 39.72 1215.51 42.66C1215.51 45.52 1217.09 46.66 1218.73 46.66ZM1231.42 39.14C1231.04 39.1 1230.7 39.06 1230.4 39.06C1228.72 39.06 1227.88 40 1227.88 42.36V48H1226.06V37.24H1227.84V39.12C1228.38 37.9 1229.48 37.22 1230.88 37.18C1231.06 37.18 1231.22 37.18 1231.42 37.2V39.14ZM1234.99 33.5V35.7H1233.17V33.5H1234.99ZM1234.99 37.24V48H1233.17V37.24H1234.99ZM1244.45 37.24V38.94C1245.11 37.8 1246.25 37.06 1247.97 37.06C1250.43 37.06 1252.57 39.12 1252.57 42.66C1252.57 46.22 1250.43 48.26 1247.97 48.26C1246.25 48.26 1245.11 47.52 1244.45 46.38V51.5H1242.63V37.24H1244.45ZM1247.51 46.7C1249.37 46.7 1250.59 45.22 1250.59 42.66C1250.59 40.1 1249.37 38.62 1247.51 38.62C1245.89 38.62 1244.37 39.82 1244.37 42.66C1244.37 45.5 1245.89 46.7 1247.51 46.7ZM1260.86 40.38C1260.58 39.1 1259.58 38.6 1258.32 38.6C1257.26 38.6 1256.06 38.98 1256.06 39.96C1256.06 40.82 1256.66 41.22 1257.7 41.42L1259.22 41.72C1261.18 42.1 1262.9 42.84 1262.9 44.92C1262.9 47.04 1260.98 48.26 1258.52 48.26C1255.7 48.26 1254.1 46.4 1253.9 44.52H1255.82C1256.1 45.9 1256.96 46.72 1258.56 46.72C1259.94 46.72 1261.06 46.12 1261.06 45.12C1261.06 44.04 1260.04 43.58 1258.88 43.34L1257.28 43.02C1255.82 42.72 1254.22 42.04 1254.22 40.04C1254.22 38.14 1256.14 37.04 1258.52 37.04C1260.84 37.04 1262.42 38.34 1262.76 40.38H1260.86ZM1266.42 43.22C1266.5 45.54 1268.14 46.66 1269.74 46.66C1271.34 46.66 1272.22 45.94 1272.68 44.88H1274.56C1274.06 46.74 1272.36 48.26 1269.74 48.26C1266.34 48.26 1264.46 45.82 1264.46 42.64C1264.46 39.24 1266.74 37.06 1269.68 37.06C1272.96 37.06 1274.94 39.82 1274.7 43.22H1266.42ZM1266.44 41.66H1272.78C1272.74 40.14 1271.6 38.62 1269.68 38.62C1268.06 38.62 1266.6 39.5 1266.44 41.66ZM1283.48 46.46C1282.86 47.48 1281.88 48.26 1280.1 48.26C1277.6 48.26 1276.66 46.58 1276.66 44.12V37.24H1278.48V43.58C1278.48 45.24 1278.76 46.68 1280.74 46.68C1282.46 46.68 1283.48 45.46 1283.48 43.16V37.24H1285.3V48H1283.48V46.46ZM1295.57 33.5H1297.39V48H1295.57V46.38C1294.91 47.52 1293.77 48.26 1292.05 48.26C1289.59 48.26 1287.45 46.22 1287.45 42.66C1287.45 39.12 1289.59 37.06 1292.05 37.06C1293.77 37.06 1294.91 37.8 1295.57 38.94V33.5ZM1292.51 38.62C1290.65 38.62 1289.43 40.1 1289.43 42.66C1289.43 45.22 1290.65 46.7 1292.51 46.7C1294.13 46.7 1295.65 45.5 1295.65 42.66C1295.65 39.82 1294.13 38.62 1292.51 38.62ZM1309.88 42.66C1309.88 46.56 1307.22 48.26 1304.72 48.26C1302.22 48.26 1299.56 46.56 1299.56 42.66C1299.56 38.76 1302.22 37.06 1304.72 37.06C1307.22 37.06 1309.88 38.76 1309.88 42.66ZM1304.72 46.66C1306.36 46.66 1307.94 45.42 1307.94 42.66C1307.94 39.8 1306.36 38.66 1304.72 38.66C1303.08 38.66 1301.5 39.72 1301.5 42.66C1301.5 45.52 1303.08 46.66 1304.72 46.66ZM1322.17 39.14C1321.79 39.1 1321.45 39.06 1321.15 39.06C1319.47 39.06 1318.63 40 1318.63 42.36V48H1316.81V37.24H1318.59V39.12C1319.13 37.9 1320.23 37.22 1321.63 37.18C1321.81 37.18 1321.97 37.18 1322.17 37.2V39.14ZM1322.88 45.16C1322.88 42.62 1325.74 41.88 1330.16 41.38V41.12C1330.16 39.16 1329.06 38.5 1327.72 38.5C1326.22 38.5 1325.34 39.32 1325.26 40.64H1323.38C1323.56 38.32 1325.6 37.02 1327.7 37.02C1330.66 37.02 1332 38.44 1331.98 41.46L1331.96 43.94C1331.94 45.74 1332.04 46.98 1332.24 48H1330.4C1330.34 47.6 1330.28 47.16 1330.26 46.52C1329.6 47.62 1328.48 48.26 1326.58 48.26C1324.56 48.26 1322.88 47.14 1322.88 45.16ZM1330.3 42.82C1327 43.16 1324.9 43.64 1324.9 45.12C1324.9 46.14 1325.68 46.82 1326.98 46.82C1328.68 46.82 1330.3 46.04 1330.3 43.5V42.82ZM1336.52 38.86C1337.14 37.84 1338.18 37.06 1340 37.06C1342.6 37.06 1343.54 38.74 1343.54 41.2V48H1341.72V41.74C1341.72 40.08 1341.44 38.64 1339.36 38.64C1337.6 38.64 1336.52 39.86 1336.52 42.16V48H1334.7V37.24H1336.52V38.86ZM1353.64 33.5H1355.46V48H1353.64V46.38C1352.98 47.52 1351.84 48.26 1350.12 48.26C1347.66 48.26 1345.52 46.22 1345.52 42.66C1345.52 39.12 1347.66 37.06 1350.12 37.06C1351.84 37.06 1352.98 37.8 1353.64 38.94V33.5ZM1350.58 38.62C1348.72 38.62 1347.5 40.1 1347.5 42.66C1347.5 45.22 1348.72 46.7 1350.58 46.7C1352.2 46.7 1353.72 45.5 1353.72 42.66C1353.72 39.82 1352.2 38.62 1350.58 38.62ZM1367.95 42.66C1367.95 46.56 1365.29 48.26 1362.79 48.26C1360.29 48.26 1357.63 46.56 1357.63 42.66C1357.63 38.76 1360.29 37.06 1362.79 37.06C1365.29 37.06 1367.95 38.76 1367.95 42.66ZM1362.79 46.66C1364.43 46.66 1366.01 45.42 1366.01 42.66C1366.01 39.8 1364.43 38.66 1362.79 38.66C1361.15 38.66 1359.57 39.72 1359.57 42.66C1359.57 45.52 1361.15 46.66 1362.79 46.66ZM1371.95 48H1370.13V37.24H1371.95V38.86C1372.57 37.84 1373.57 37.06 1375.19 37.06C1376.83 37.06 1377.81 37.78 1378.29 38.96C1379.15 37.64 1380.41 37.06 1381.91 37.06C1384.41 37.06 1385.39 38.74 1385.39 41.2V48H1383.57V41.74C1383.57 40.08 1383.25 38.64 1381.27 38.64C1379.71 38.64 1378.67 39.86 1378.67 42.16V48H1376.85V41.74C1376.85 40.08 1376.53 38.64 1374.55 38.64C1372.99 38.64 1371.95 39.86 1371.95 42.16V48Z" fill="black"/>
<path d="M350 41L510 41" stroke="black"/>
<path d="M489 63L510 41L489 19" stroke="black"/>
<path d="M894 41L1054 41" stroke="black"/>
<path d="M1033 63L1054 41L1033 19" stroke="black"/>
</svg>
